<svg width="48" height="48" viewBox="0 0 48 48" fill="none" xmlns="http://www.w3.org/2000/svg">
<g id="google">
<path id="vector" d="M45.0021 24.4664C45.0021 22.7397 44.8591 21.4797 44.5497 20.1731H24.4307V27.9663H36.2401C36.0021 29.9031 34.7164 32.8197 31.8592 34.7796L31.8192 35.0405L38.1804 39.87L38.6211 39.9131C42.6687 36.2497 45.0021 30.8597 45.0021 24.4664Z" fill="#4285F4"/>
<path id="vector_2" d="M24.4294 45C30.215 45 35.0721 43.1332 38.6198 39.9133L31.8579 34.7798C30.0484 36.0165 27.6198 36.8798 24.4294 36.8798C18.7628 36.8798 13.9533 33.2166 12.2389 28.1532L11.9876 28.1741L5.37306 33.1908L5.28656 33.4265C8.81032 40.2865 16.0484 45 24.4294 45Z" fill="#34A853"/>
<path id="vector_3" d="M12.2401 28.1533C11.7878 26.8466 11.526 25.4465 11.526 23.9999C11.526 22.5532 11.7878 21.1532 12.2163 19.8466L12.2043 19.5683L5.50692 14.471L5.28779 14.5732C3.83548 17.4199 3.00214 20.6166 3.00214 23.9999C3.00214 27.3833 3.83548 30.5798 5.28779 33.4265L12.2401 28.1533Z" fill="#FBBC05"/>
<path id="vector_4" d="M24.4295 11.1199C28.4533 11.1199 31.1675 12.8233 32.7152 14.2467L38.7628 8.46C35.0486 5.07668 30.2151 3 24.4295 3C16.0485 3 8.81034 7.7133 5.28656 14.5732L12.2151 19.8466C13.9534 14.7833 18.7629 11.1199 24.4295 11.1199Z" fill="#EB4335"/>
</g>
</svg>
